<?xml version="1.0" standalone="no"?><!DOCTYPE svg PUBLIC "-//W3C//DTD SVG 1.1//EN" "http://www.w3.org/Graphics/SVG/1.1/DTD/svg11.dtd"><svg t="1507882675623" class="icon" style="" viewBox="0 0 1024 1024" version="1.1" xmlns="http://www.w3.org/2000/svg" p-id="2689" xmlns:xlink="http://www.w3.org/1999/xlink" width="200" height="200"><defs><style type="text/css"></style></defs><path d="M752.941176 902.565647l-542.117647 0c-83.004235 0-150.588235-67.523765-150.588235-150.588235l0-421.647059c0-83.004235 67.584-150.588235 150.588235-150.588235l542.117647 0c83.064471 0 150.588235 67.584 150.588235 150.588235l0 421.647059C903.529412 835.041882 836.005647 902.565647 752.941176 902.565647zM210.823529 239.977412c-49.814588 0-90.352941 40.538353-90.352941 90.352941l0 421.647059c0 49.814588 40.538353 90.352941 90.352941 90.352941l542.117647 0c49.814588 0 90.352941-40.538353 90.352941-90.352941l0-421.647059c0-49.814588-40.538353-90.352941-90.352941-90.352941L210.823529 239.977412z" p-id="2690" fill="#ffffff"></path><path d="M481.882353 653.492706 89.750588 261.300706 132.336941 218.714353 481.882353 568.32 831.427765 218.714353 874.014118 261.300706Z" p-id="2691" fill="#ffffff"></path></svg>