<?xml version="1.0" standalone="no"?><!DOCTYPE svg PUBLIC "-//W3C//DTD SVG 1.1//EN" "http://www.w3.org/Graphics/SVG/1.1/DTD/svg11.dtd"><svg t="1507882695115" class="icon" style="" viewBox="0 0 1024 1024" version="1.1" xmlns="http://www.w3.org/2000/svg" p-id="3385" xmlns:xlink="http://www.w3.org/1999/xlink" width="200" height="200"><defs><style type="text/css"></style></defs><path d="M752.88487 1024c-66.070261 0-151.351652-44.009739-211.277913-80.940522-80.228174-49.463652-166.689391-117.849043-243.422609-192.623304l-0.289391-0.26713-24.353391-24.375652c-74.752-76.710957-143.159652-163.172174-192.623304-243.422609C44.009739 422.466783 0 337.16313 0 271.11513c0-70.700522 50.554435-145.741913 72.303304-174.725565C89.243826 73.772522 148.502261 0 198.856348 0c20.680348 0 42.941217 13.534609 72.192 43.876174 25.889391 26.846609 50.710261 60.193391 67.005217 83.456 21.837913 31.232 42.073043 63.910957 56.921043 92.048696 24.064 45.568 26.824348 65.090783 26.824348 75.842783 0 21.659826-11.308522 40.448-33.613913 55.830261-14.692174 10.128696-32.322783 17.764174-49.39687 25.132522-11.50887 4.964174-29.851826 12.911304-36.864 18.498783 2.426435 10.351304 13.111652 35.350261 41.984 77.734957 26.89113 39.490783 61.68487 82.298435 93.117217 114.554435 32.278261 31.432348 75.063652 66.203826 114.554435 93.117217 42.362435 28.850087 67.361391 39.535304 77.734957 41.984 5.587478-6.989913 13.512348-25.377391 18.498783-36.864 7.390609-17.074087 15.003826-34.704696 25.132522-49.39687 15.382261-22.305391 34.170435-33.613913 55.830261-33.613913 10.729739 0 30.274783 2.782609 75.842783 26.824348 28.137739 14.848 60.816696 35.06087 92.048696 56.921043 23.240348 16.272696 56.609391 41.115826 83.456 66.982957C1010.465391 782.202435 1024 804.485565 1024 825.143652c0 50.354087-73.772522 109.590261-96.411826 126.553043C898.626783 973.445565 823.585391 1024 752.88487 1024zM340.524522 707.272348c73.594435 71.702261 156.271304 137.149217 232.804174 184.297739 74.195478 45.723826 139.642435 71.94713 179.556174 71.94713 35.550609 0 86.238609-21.704348 135.568696-58.056348 21.637565-15.938783 41.316174-33.702957 55.451826-49.997913 13.245217-15.293217 18.098087-25.266087 19.322435-29.295304-5.097739-10.99687-35.528348-45.389913-106.496-94.341565-27.826087-19.18887-56.609391-36.841739-81.051826-49.686261-30.675478-16.13913-43.453217-18.921739-46.369391-19.366957-1.135304 0.77913-4.474435 3.584-9.549913 12.087652-5.676522 9.527652-11.152696 22.149565-16.428522 34.370783-6.500174 15.026087-13.222957 30.586435-21.481739 43.141565-13.423304 20.413217-29.896348 30.764522-48.973913 30.764522-0.356174 0-0.712348 0-1.068522 0-9.282783-0.200348-37.554087-0.801391-114.242783-53.047652-42.340174-28.850087-88.33113-66.270609-123.013565-100.062609l-0.534261-0.534261c-33.814261-34.682435-71.212522-80.673391-100.062609-122.991304-52.246261-76.710957-52.847304-104.96-53.047652-114.265043-0.422957-19.411478 9.817043-36.173913 30.45287-49.819826 12.599652-8.347826 28.293565-15.137391 43.453217-21.682087 12.198957-5.275826 24.84313-10.752 34.370783-16.428522 8.503652-5.075478 11.308522-8.414609 12.087652-9.549913-0.467478-2.916174-3.250087-15.716174-19.366957-46.369391-12.844522-24.420174-30.497391-53.203478-49.686261-81.051826C243.222261 96.300522 208.829217 65.892174 197.832348 60.772174 193.80313 62.018783 183.830261 66.849391 168.514783 80.094609 152.219826 94.208 134.477913 113.90887 118.53913 135.546435c-36.352 49.330087-58.078609 100.018087-58.078609 135.568696 0 39.913739 26.223304 105.360696 71.94713 179.556174 47.170783 76.53287 112.617739 159.209739 184.297739 232.804174L340.524522 707.272348z" p-id="3386" fill="#ffffff"></path></svg>