<?xml version="1.0" standalone="no"?><!DOCTYPE svg PUBLIC "-//W3C//DTD SVG 1.1//EN" "http://www.w3.org/Graphics/SVG/1.1/DTD/svg11.dtd"><svg t="1507882713885" class="icon" style="" viewBox="0 0 1024 1024" version="1.1" xmlns="http://www.w3.org/2000/svg" p-id="4100" xmlns:xlink="http://www.w3.org/1999/xlink" width="200" height="200"><defs><style type="text/css"></style></defs><path d="M486.4 1011.2c6.4 6.4 12.8 12.8 25.6 12.8s19.2-6.4 25.6-12.8l300.8-448c38.4-57.6 57.6-121.6 57.6-192C896 166.4 723.2 0 512 0S128 166.4 128 371.2c0 70.4 19.2 134.4 57.6 192l300.8 448zM512 64c179.2 0 320 134.4 320 307.2 0 57.6-12.8 108.8-44.8 153.6L512 934.4 236.8 524.8C204.8 480 192 428.8 192 371.2 192 198.4 332.8 64 512 64z" fill="#ffffff" p-id="4101"></path><path d="M512 544c102.4 0 179.2-76.8 179.2-179.2C691.2 268.8 614.4 192 512 192 409.6 192 332.8 268.8 332.8 371.2c0 96 76.8 172.8 179.2 172.8zM512 256c64 0 115.2 51.2 115.2 108.8 0 64-51.2 115.2-115.2 115.2s-115.2-51.2-115.2-115.2C396.8 307.2 448 256 512 256z" fill="#ffffff" p-id="4102"></path></svg>